<?xml version="1.0" encoding="UTF-8"?>
<!DOCTYPE svg PUBLIC "-//W3C//DTD SVG 1.1//EN" "http://www.w3.org/Graphics/SVG/1.1/DTD/svg11.dtd">
<svg version="1.1" xmlns="http://www.w3.org/2000/svg" xmlns:xlink="http://www.w3.org/1999/xlink" width="179" height="338"  xml:space="preserve" id="canvas1">
    <!-- Generated by PaintCode - http://www.paintcodeapp.com -->
    <g id="canvas1-simpleCheckGroup">
        <rect id="canvas1-rectangle" stroke="none" fill="rgb(255, 255, 255)" x="1.5" y="1.5" width="176" height="335" />
        <path id="canvas1-bezier" stroke="none" fill="rgb(0, 0, 0)" d="M 179,-0 L 0,-0 0,338 179,338 179,-0 Z M 176,335 L 3,335 3,3 176,3 176,335 Z M 176,335" />
        <path id="canvas1-bezier2" stroke="none" fill="rgb(0, 0, 0)" d="M 16.5,18.5 L 160.5,18.5 160.5,27.5 16.5,27.5 16.5,18.5 Z M 16.5,18.5" />
        <path id="canvas1-bezier3" stroke="none" fill="rgb(0, 0, 0)" d="M 162,17 L 15,17 15,29 162,29 162,17 Z M 159,26 L 18,26 18,20 159,20 159,26 Z M 159,26" />
        <path id="canvas1-bezier4" stroke="none" fill="rgb(0, 0, 0)" d="M 40.5,38.5 L 136.5,38.5 136.5,44.5 40.5,44.5 40.5,38.5 Z M 40.5,38.5" />
        <path id="canvas1-bezier5" stroke="none" fill="rgb(0, 0, 0)" d="M 138,37 L 39,37 39,46 138,46 138,37 Z M 135,43 L 42,43 42,40 135,40 135,43 Z M 135,43" />
        <path id="canvas1-bezier6" stroke="none" fill="rgb(0, 0, 0)" d="M 16.5,83.5 L 112.5,83.5 112.5,89.5 16.5,89.5 16.5,83.5 Z M 16.5,83.5" />
        <path id="canvas1-bezier7" stroke="none" fill="rgb(0, 0, 0)" d="M 114,82 L 15,82 15,91 114,91 114,82 Z M 111,88 L 18,88 18,85 111,85 111,88 Z M 111,88" />
        <rect id="canvas1-rectangle2" stroke="none" fill="rgb(0, 0, 0)" x="131.5" y="83.5" width="29" height="6" />
        <path id="canvas1-bezier8" stroke="none" fill="rgb(0, 0, 0)" d="M 162,82 L 130,82 130,91 162,91 162,82 Z M 159,88 L 133,88 133,85 159,85 159,88 Z M 159,88" />
        <path id="canvas1-bezier9" stroke="none" fill="rgb(0, 0, 0)" d="M 15.99,107.05 L 111.99,107.05 111.99,113.05 15.99,113.05 15.99,107.05 Z M 15.99,107.05" />
        <path id="canvas1-bezier10" stroke="none" fill="rgb(0, 0, 0)" d="M 113.49,105.55 L 14.49,105.55 14.49,114.55 113.49,114.55 113.49,105.55 Z M 110.49,111.55 L 17.49,111.55 17.49,108.55 110.49,108.55 110.49,111.55 Z M 110.49,111.55" />
        <rect id="canvas1-rectangle3" stroke="none" fill="rgb(0, 0, 0)" x="131" y="107.05" width="29" height="6" />
        <path id="canvas1-bezier11" stroke="none" fill="rgb(0, 0, 0)" d="M 161.49,105.55 L 129.49,105.55 129.49,114.55 161.49,114.55 161.49,105.55 Z M 158.49,111.55 L 132.49,111.55 132.49,108.55 158.49,108.55 158.49,111.55 Z M 158.49,111.55" />
        <path id="canvas1-bezier12" stroke="none" fill="rgb(0, 0, 0)" d="M 15.6,83.5 L 111.6,83.5 111.6,89.5 15.6,89.5 15.6,83.5 Z M 15.6,83.5" />
        <path id="canvas1-bezier13" stroke="none" fill="rgb(0, 0, 0)" d="M 113.1,82 L 14.1,82 14.1,91 113.1,91 113.1,82 Z M 110.1,88 L 17.1,88 17.1,85 110.1,85 110.1,88 Z M 110.1,88" />
        <rect id="canvas1-rectangle4" stroke="none" fill="rgb(0, 0, 0)" x="130.25" y="83.5" width="29" height="6" />
        <path id="canvas1-bezier14" stroke="none" fill="rgb(0, 0, 0)" d="M 160.73,82 L 128.73,82 128.73,91 160.73,91 160.73,82 Z M 157.73,88 L 131.73,88 131.73,85 157.73,85 157.73,88 Z M 157.73,88" />
        <path id="canvas1-bezier15" stroke="none" fill="rgb(0, 0, 0)" d="M 15.6,107.05 L 111.6,107.05 111.6,113.05 15.6,113.05 15.6,107.05 Z M 15.6,107.05" />
        <path id="canvas1-bezier16" stroke="none" fill="rgb(0, 0, 0)" d="M 113.1,105.55 L 14.1,105.55 14.1,114.55 113.1,114.55 113.1,105.55 Z M 110.1,111.55 L 17.1,111.55 17.1,108.55 110.1,108.55 110.1,111.55 Z M 110.1,111.55" />
        <rect id="canvas1-rectangle5" stroke="none" fill="rgb(0, 0, 0)" x="130.25" y="107.05" width="29" height="6" />
        <path id="canvas1-bezier17" stroke="none" fill="rgb(0, 0, 0)" d="M 160.73,105.55 L 128.73,105.55 128.73,114.55 160.73,114.55 160.73,105.55 Z M 157.73,111.55 L 131.73,111.55 131.73,108.55 157.73,108.55 157.73,111.55 Z M 157.73,111.55" />
        <path id="canvas1-bezier18" stroke="none" fill="rgb(0, 0, 0)" d="M 15.6,129.28 L 111.6,129.28 111.6,135.28 15.6,135.28 15.6,129.28 Z M 15.6,129.28" />
        <path id="canvas1-bezier19" stroke="none" fill="rgb(0, 0, 0)" d="M 113.1,127.78 L 14.1,127.78 14.1,136.78 113.1,136.78 113.1,127.78 Z M 110.1,133.78 L 17.1,133.78 17.1,130.78 110.1,130.78 110.1,133.78 Z M 110.1,133.78" />
        <rect id="canvas1-rectangle6" stroke="none" fill="rgb(0, 0, 0)" x="130.25" y="129.3" width="29" height="6" />
        <path id="canvas1-bezier20" stroke="none" fill="rgb(0, 0, 0)" d="M 160.73,127.78 L 128.73,127.78 128.73,136.78 160.73,136.78 160.73,127.78 Z M 157.73,133.78 L 131.73,133.78 131.73,130.78 157.73,130.78 157.73,133.78 Z M 157.73,133.78" />
        <path id="canvas1-bezier21" stroke="none" fill="rgb(0, 0, 0)" d="M 15.6,152.83 L 111.6,152.83 111.6,158.83 15.6,158.83 15.6,152.83 Z M 15.6,152.83" />
        <path id="canvas1-bezier22" stroke="none" fill="rgb(0, 0, 0)" d="M 113.1,151.33 L 14.1,151.33 14.1,160.33 113.1,160.33 113.1,151.33 Z M 110.1,157.33 L 17.1,157.33 17.1,154.33 110.1,154.33 110.1,157.33 Z M 110.1,157.33" />
        <rect id="canvas1-rectangle7" stroke="none" fill="rgb(0, 0, 0)" x="130.25" y="152.85" width="29" height="6" />
        <path id="canvas1-bezier23" stroke="none" fill="rgb(0, 0, 0)" d="M 160.73,151.33 L 128.73,151.33 128.73,160.33 160.73,160.33 160.73,151.33 Z M 157.73,157.33 L 131.73,157.33 131.73,154.33 157.73,154.33 157.73,157.33 Z M 157.73,157.33" />
        <path id="canvas1-bezier24" stroke="none" fill="rgb(0, 0, 0)" d="M 15.6,176.39 L 111.6,176.39 111.6,182.39 15.6,182.39 15.6,176.39 Z M 15.6,176.39" />
        <path id="canvas1-bezier25" stroke="none" fill="rgb(0, 0, 0)" d="M 113.1,174.89 L 14.1,174.89 14.1,183.89 113.1,183.89 113.1,174.89 Z M 110.1,180.89 L 17.1,180.89 17.1,177.89 110.1,177.89 110.1,180.89 Z M 110.1,180.89" />
        <rect id="canvas1-rectangle8" stroke="none" fill="rgb(0, 0, 0)" x="130.25" y="176.4" width="29" height="6" />
        <path id="canvas1-bezier26" stroke="none" fill="rgb(0, 0, 0)" d="M 160.73,174.89 L 128.73,174.89 128.73,183.89 160.73,183.89 160.73,174.89 Z M 157.73,180.89 L 131.73,180.89 131.73,177.89 157.73,177.89 157.73,180.89 Z M 157.73,180.89" />
        <path id="canvas1-bezier27" stroke="none" fill="rgb(0, 0, 0)" d="M 15.6,199.94 L 111.6,199.94 111.6,205.94 15.6,205.94 15.6,199.94 Z M 15.6,199.94" />
        <path id="canvas1-bezier28" stroke="none" fill="rgb(0, 0, 0)" d="M 113.1,198.44 L 14.1,198.44 14.1,207.44 113.1,207.44 113.1,198.44 Z M 110.1,204.44 L 17.1,204.44 17.1,201.44 110.1,201.44 110.1,204.44 Z M 110.1,204.44" />
        <rect id="canvas1-rectangle9" stroke="none" fill="rgb(0, 0, 0)" x="130.25" y="199.95" width="29" height="6" />
        <path id="canvas1-bezier29" stroke="none" fill="rgb(0, 0, 0)" d="M 160.73,198.44 L 128.73,198.44 128.73,207.44 160.73,207.44 160.73,198.44 Z M 157.73,204.44 L 131.73,204.44 131.73,201.44 157.73,201.44 157.73,204.44 Z M 157.73,204.44" />
        <path id="canvas1-bezier30" stroke="none" fill="rgb(0, 0, 0)" d="M 15.6,222.16 L 111.6,222.16 111.6,228.16 15.6,228.16 15.6,222.16 Z M 15.6,222.16" />
        <path id="canvas1-bezier31" stroke="none" fill="rgb(0, 0, 0)" d="M 113.1,220.66 L 14.1,220.66 14.1,229.66 113.1,229.66 113.1,220.66 Z M 110.1,226.66 L 17.1,226.66 17.1,223.66 110.1,223.66 110.1,226.66 Z M 110.1,226.66" />
        <rect id="canvas1-rectangle10" stroke="none" fill="rgb(0, 0, 0)" x="130.25" y="222.15" width="29" height="6" />
        <path id="canvas1-bezier32" stroke="none" fill="rgb(0, 0, 0)" d="M 160.73,220.66 L 128.73,220.66 128.73,229.66 160.73,229.66 160.73,220.66 Z M 157.73,226.66 L 131.73,226.66 131.73,223.66 157.73,223.66 157.73,226.66 Z M 157.73,226.66" />
        <path id="canvas1-bezier33" stroke="none" fill="rgb(0, 0, 0)" d="M 15.6,245.72 L 111.6,245.72 111.6,251.72 15.6,251.72 15.6,245.72 Z M 15.6,245.72" />
        <path id="canvas1-bezier34" stroke="none" fill="rgb(0, 0, 0)" d="M 113.1,244.22 L 14.1,244.22 14.1,253.22 113.1,253.22 113.1,244.22 Z M 110.1,250.22 L 17.1,250.22 17.1,247.22 110.1,247.22 110.1,250.22 Z M 110.1,250.22" />
        <rect id="canvas1-rectangle11" stroke="none" fill="rgb(0, 0, 0)" x="130.25" y="245.7" width="29" height="6" />
        <path id="canvas1-bezier35" stroke="none" fill="rgb(0, 0, 0)" d="M 160.73,244.22 L 128.73,244.22 128.73,253.22 160.73,253.22 160.73,244.22 Z M 157.73,250.22 L 131.73,250.22 131.73,247.22 157.73,247.22 157.73,250.22 Z M 157.73,250.22" />
        <rect id="canvas1-rectangle12" stroke="none" fill="rgb(0, 0, 0)" x="130.25" y="269.15" width="29" height="6" />
        <path id="canvas1-bezier36" stroke="none" fill="rgb(0, 0, 0)" d="M 160.73,267.66 L 128.73,267.66 128.73,276.66 160.73,276.66 160.73,267.66 Z M 157.73,273.66 L 131.73,273.66 131.73,270.66 157.73,270.66 157.73,273.66 Z M 157.73,273.66" />
        <rect id="canvas1-rectangle13" stroke="none" fill="rgb(0, 0, 0)" x="130.25" y="291.4" width="29" height="6" />
        <path id="canvas1-bezier37" stroke="none" fill="rgb(0, 0, 0)" d="M 160.73,289.89 L 128.73,289.89 128.73,298.89 160.73,298.89 160.73,289.89 Z M 157.73,295.89 L 131.73,295.89 131.73,292.89 157.73,292.89 157.73,295.89 Z M 157.73,295.89" />
        <rect id="canvas1-rectangle14" stroke="none" fill="rgb(0, 0, 0)" x="130.25" y="314.95" width="29" height="6" />
        <path id="canvas1-bezier38" stroke="none" fill="rgb(0, 0, 0)" d="M 160.73,313.44 L 128.73,313.44 128.73,322.44 160.73,322.44 160.73,313.44 Z M 157.73,319.44 L 131.73,319.44 131.73,316.44 157.73,316.44 157.73,319.44 Z M 157.73,319.44" />
    </g>
</svg>
